#Comment line ignore any data following # character 
#Hierarchical Translation and Rotation (.htr) file 
[Header]	
#Header keywords are followed by a single value 
FileType HTR		#Single word string
DataType HTRS		#Translation followed by rotation and scale data
FileVersion 1		#integer
NumSegments 84		#integer
NumFrames 2		#integer
DataFrameRate 30		#integer, data frame rate in this file
EulerRotationOrder ZYX
CalibrationUnits mm
RotationUnits Degrees
GlobalAxisofGravity Y
BoneLengthAxis Y
ScaleFactor 1.00
[SegmentNames&Hierarchy]
#CHILD	PARENT
MASTER GLOBAL
root MASTER
chest root
L_mid_tent01 root
R_mid_tent01 root
spine01 root
Bip01_Neck chest
L_humerus chest
R_humerus chest
weapon_bone chest
Bip01_Head Bip01_Neck
eye_left_bone Bip01_Head
eye_right_bone Bip01_Head
L_forearm L_humerus
L_front_hand L_forearm
L_weapon_bone L_forearm
L_front_hand01_01 L_front_hand
L_front_hand02_01 L_front_hand
L_front_hand03_01 L_front_hand
L_front_hand01_02 L_front_hand01_01
L_front_hand02_02 L_front_hand02_01
L_front_hand03_02 L_front_hand03_01
R_forearm R_humerus
R_front_hand R_forearm
R_weapon_bone R_forearm
R_front_hand01_01 R_front_hand
R_front_hand02_01 R_front_hand
R_front_hand03_01 R_front_hand
R_front_hand01_02 R_front_hand01_01
R_front_hand02_02 R_front_hand02_01
R_front_hand03_02 R_front_hand03_01
null_rope01_connect L_mid_tent01
Rope1_Seg01 null_rope01_connect
Rope1_Seg02 Rope1_Seg01
Rope1_Seg03 Rope1_Seg02
Rope1_Seg04 Rope1_Seg03
Rope1_Seg05 Rope1_Seg04
Rope1_Seg06 Rope1_Seg05
Rope1_Seg07 Rope1_Seg06
Rope1_Seg09 Rope1_Seg07
L_mid_hand01 Rope1_Seg09
L_mid_hand02 Rope1_Seg09
L_mid_hand03 Rope1_Seg09
null_rope02_connect R_mid_tent01
Rope2_Seg01 null_rope02_connect
Rope2_Seg02 Rope2_Seg01
Rope2_Seg03 Rope2_Seg02
Rope2_Seg04 Rope2_Seg03
Rope2_Seg05 Rope2_Seg04
Rope2_Seg06 Rope2_Seg05
Rope2_Seg07 Rope2_Seg06
Rope2_Seg09 Rope2_Seg07
R_mid_hand01 Rope2_Seg09
R_mid_hand02 Rope2_Seg09
R_mid_hand03 Rope2_Seg09
spine02 spine01
spine03 spine02
pelvis spine03
null_rope03_connect pelvis
null_rope04_connect pelvis
Rope3_Seg01 null_rope03_connect
Rope3_Seg02 Rope3_Seg01
Rope3_Seg03 Rope3_Seg02
Rope3_Seg04 Rope3_Seg03
Rope3_Seg05 Rope3_Seg04
Rope3_Seg06 Rope3_Seg05
Rope3_Seg07 Rope3_Seg06
Rope3_Seg08 Rope3_Seg07
Rope3_Seg09 Rope3_Seg08
R_rear_hand01 Rope3_Seg09
R_rear_hand02 Rope3_Seg09
R_rear_hand03 Rope3_Seg09
Rope4_Seg01 null_rope04_connect
Rope4_Seg02 Rope4_Seg01
Rope4_Seg03 Rope4_Seg02
Rope4_Seg04 Rope4_Seg03
Rope4_Seg05 Rope4_Seg04
Rope4_Seg06 Rope4_Seg05
Rope4_Seg07 Rope4_Seg06
Rope4_Seg08 Rope4_Seg07
Rope4_Seg09 Rope4_Seg08
L_rear_hand01 Rope4_Seg09
L_rear_hand02 Rope4_Seg09
L_rear_hand03 Rope4_Seg09
[BasePosition]
#SegmentName Tx, Ty, Tz, Rx, Ry, Rz, BoneLength
MASTER 0.000000 0.000000 0.000000 -90.000000 0.000000 0.000000 10.000000 
root 0.000000 0.000000 0.000000 0.000000 0.000000 0.000000 10.000000 
chest 0.000000 0.000000 0.000000 0.000000 0.000000 0.000000 10.000000 
L_mid_tent01 0.000000 0.000000 0.000000 0.000000 0.000000 0.000000 10.000000 
R_mid_tent01 0.000000 0.000000 0.000000 0.000000 0.000000 0.000000 10.000000 
spine01 0.000000 0.000000 0.000000 0.000000 0.000000 0.000000 10.000000 
Bip01_Neck 0.000000 0.000000 0.000000 0.000000 0.000000 0.000000 10.000000 
L_humerus 0.000000 0.000000 0.000000 0.000000 0.000000 0.000000 10.000000 
R_humerus 0.000000 0.000000 0.000000 0.000000 0.000000 0.000000 10.000000 
weapon_bone 0.000000 0.000000 0.000000 0.000000 0.000000 0.000000 10.000000 
Bip01_Head 0.000000 0.000000 0.000000 0.000000 0.000000 0.000000 10.000000 
eye_left_bone 0.000000 0.000000 0.000000 0.000000 0.000000 0.000000 10.000000 
eye_right_bone 0.000000 0.000000 0.000000 0.000000 0.000000 0.000000 10.000000 
L_forearm 0.000000 0.000000 0.000000 0.000000 0.000000 0.000000 10.000000 
L_front_hand 0.000000 0.000000 0.000000 0.000000 0.000000 0.000000 10.000000 
L_weapon_bone 0.000000 0.000000 0.000000 0.000000 0.000000 0.000000 10.000000 
L_front_hand01_01 0.000000 0.000000 0.000000 0.000000 0.000000 0.000000 10.000000 
L_front_hand02_01 0.000000 0.000000 0.000000 0.000000 0.000000 0.000000 10.000000 
L_front_hand03_01 0.000000 0.000000 0.000000 0.000000 0.000000 0.000000 10.000000 
L_front_hand01_02 0.000000 0.000000 0.000000 0.000000 0.000000 0.000000 10.000000 
L_front_hand02_02 0.000000 0.000000 0.000000 0.000000 0.000000 0.000000 10.000000 
L_front_hand03_02 0.000000 0.000000 0.000000 0.000000 0.000000 0.000000 10.000000 
R_forearm 0.000000 0.000000 0.000000 0.000000 0.000000 0.000000 10.000000 
R_front_hand 0.000000 0.000000 0.000000 0.000000 0.000000 0.000000 10.000000 
R_weapon_bone 0.000000 0.000000 0.000000 0.000000 0.000000 0.000000 10.000000 
R_front_hand01_01 0.000000 0.000000 0.000000 0.000000 0.000000 0.000000 10.000000 
R_front_hand02_01 0.000000 0.000000 0.000000 0.000000 0.000000 0.000000 10.000000 
R_front_hand03_01 0.000000 0.000000 0.000000 0.000000 0.000000 0.000000 10.000000 
R_front_hand01_02 0.000000 0.000000 0.000000 0.000000 0.000000 0.000000 10.000000 
R_front_hand02_02 0.000000 0.000000 0.000000 0.000000 0.000000 0.000000 10.000000 
R_front_hand03_02 0.000000 0.000000 0.000000 0.000000 0.000000 0.000000 10.000000 
null_rope01_connect 0.000000 0.000000 0.000000 0.000000 0.000000 0.000000 10.000000 
Rope1_Seg01 0.000000 0.000000 0.000000 0.000000 0.000000 0.000000 10.000000 
Rope1_Seg02 0.000000 0.000000 0.000000 0.000000 0.000000 0.000000 10.000000 
Rope1_Seg03 0.000000 0.000000 0.000000 0.000000 0.000000 0.000000 10.000000 
Rope1_Seg04 0.000000 0.000000 0.000000 0.000000 0.000000 0.000000 10.000000 
Rope1_Seg05 0.000000 0.000000 0.000000 0.000000 0.000000 0.000000 10.000000 
Rope1_Seg06 0.000000 0.000000 0.000000 0.000000 0.000000 0.000000 10.000000 
Rope1_Seg07 0.000000 0.000000 0.000000 0.000000 0.000000 0.000000 10.000000 
Rope1_Seg09 0.000000 0.000000 0.000000 0.000000 0.000000 0.000000 10.000000 
L_mid_hand01 0.000000 0.000000 0.000000 0.000000 0.000000 0.000000 10.000000 
L_mid_hand02 0.000000 0.000000 0.000000 0.000000 0.000000 0.000000 10.000000 
L_mid_hand03 0.000000 0.000000 0.000000 0.000000 0.000000 0.000000 10.000000 
null_rope02_connect 0.000000 0.000000 0.000000 0.000000 0.000000 0.000000 10.000000 
Rope2_Seg01 0.000000 0.000000 0.000000 0.000000 0.000000 0.000000 10.000000 
Rope2_Seg02 0.000000 0.000000 0.000000 0.000000 0.000000 0.000000 10.000000 
Rope2_Seg03 0.000000 0.000000 0.000000 0.000000 0.000000 0.000000 10.000000 
Rope2_Seg04 0.000000 0.000000 0.000000 0.000000 0.000000 0.000000 10.000000 
Rope2_Seg05 0.000000 0.000000 0.000000 0.000000 0.000000 0.000000 10.000000 
Rope2_Seg06 0.000000 0.000000 0.000000 0.000000 0.000000 0.000000 10.000000 
Rope2_Seg07 0.000000 0.000000 0.000000 0.000000 0.000000 0.000000 10.000000 
Rope2_Seg09 0.000000 0.000000 0.000000 0.000000 0.000000 0.000000 10.000000 
R_mid_hand01 0.000000 0.000000 0.000000 0.000000 0.000000 0.000000 10.000000 
R_mid_hand02 0.000000 0.000000 0.000000 0.000000 0.000000 0.000000 10.000000 
R_mid_hand03 0.000000 0.000000 0.000000 0.000000 0.000000 0.000000 10.000000 
spine02 0.000000 0.000000 0.000000 0.000000 0.000000 0.000000 10.000000 
spine03 0.000000 0.000000 0.000000 0.000000 0.000000 0.000000 10.000000 
pelvis 0.000000 0.000000 0.000000 0.000000 0.000000 0.000000 10.000000 
null_rope03_connect 0.000000 0.000000 0.000000 0.000000 0.000000 0.000000 10.000000 
null_rope04_connect 0.000000 0.000000 0.000000 0.000000 0.000000 0.000000 10.000000 
Rope3_Seg01 0.000000 0.000000 0.000000 0.000000 0.000000 0.000000 10.000000 
Rope3_Seg02 0.000000 0.000000 0.000000 0.000000 0.000000 0.000000 10.000000 
Rope3_Seg03 0.000000 0.000000 0.000000 0.000000 0.000000 0.000000 10.000000 
Rope3_Seg04 0.000000 0.000000 0.000000 0.000000 0.000000 0.000000 10.000000 
Rope3_Seg05 0.000000 0.000000 0.000000 0.000000 0.000000 0.000000 10.000000 
Rope3_Seg06 0.000000 0.000000 0.000000 0.000000 0.000000 0.000000 10.000000 
Rope3_Seg07 0.000000 0.000000 0.000000 0.000000 0.000000 0.000000 10.000000 
Rope3_Seg08 0.000000 0.000000 0.000000 0.000000 0.000000 0.000000 10.000000 
Rope3_Seg09 0.000000 0.000000 0.000000 0.000000 0.000000 0.000000 10.000000 
R_rear_hand01 0.000000 0.000000 0.000000 0.000000 0.000000 0.000000 10.000000 
R_rear_hand02 0.000000 0.000000 0.000000 0.000000 0.000000 0.000000 10.000000 
R_rear_hand03 0.000000 0.000000 0.000000 0.000000 0.000000 0.000000 10.000000 
Rope4_Seg01 0.000000 0.000000 0.000000 0.000000 0.000000 0.000000 10.000000 
Rope4_Seg02 0.000000 0.000000 0.000000 0.000000 0.000000 0.000000 10.000000 
Rope4_Seg03 0.000000 0.000000 0.000000 0.000000 0.000000 0.000000 10.000000 
Rope4_Seg04 0.000000 0.000000 0.000000 0.000000 0.000000 0.000000 10.000000 
Rope4_Seg05 0.000000 0.000000 0.000000 0.000000 0.000000 0.000000 10.000000 
Rope4_Seg06 0.000000 0.000000 0.000000 0.000000 0.000000 0.000000 10.000000 
Rope4_Seg07 0.000000 0.000000 0.000000 0.000000 0.000000 0.000000 10.000000 
Rope4_Seg08 0.000000 0.000000 0.000000 0.000000 0.000000 0.000000 10.000000 
Rope4_Seg09 0.000000 0.000000 0.000000 0.000000 0.000000 0.000000 10.000000 
L_rear_hand01 0.000000 0.000000 0.000000 0.000000 0.000000 0.000000 10.000000 
L_rear_hand02 0.000000 0.000000 0.000000 0.000000 0.000000 0.000000 10.000000 
L_rear_hand03 0.000000 0.000000 0.000000 0.000000 0.000000 0.000000 10.000000 
#Beginning of Data. Separated by tabs
#Fr	Tx	Ty	Tz	Rx	Ry	Rz	SF
[MASTER]
36 0.000000 0.000000 0.000000 0.001660 0.001660 0.001660 0.000000
37 0.000000 0.000000 0.000000 0.001660 0.001660 0.001660 0.000000
[root]
36 -5.269470 68.261024 1452.268433 -86.302765 -11.608603 -92.438210 1453.881348
37 -10.723291 37.614292 1449.325684 -88.996140 -11.587970 -90.254662 1449.853394
[chest]
36 -84.512650 -34.090519 0.000000 -2.377788 0.269347 170.598221 91.129311
37 -84.512650 -34.090519 0.000000 -2.232765 0.085073 168.928711 91.129311
[L_mid_tent01]
36 27.299141 22.179070 -249.918732 -2.873928 23.708544 23.221893 252.381714
37 27.299101 22.179165 -249.918732 -12.317056 17.077259 16.847528 252.381714
[R_mid_tent01]
36 23.228794 24.509907 226.238495 -157.849594 -8.756458 21.482557 228.744751
37 23.228794 24.509907 226.238495 -161.537460 -12.760188 22.237789 228.744751
[spine01]
36 -0.361383 -0.195265 0.000000 0.001943 0.001316 21.786570 0.410763
37 -0.361383 -0.195265 0.000000 0.001945 0.001314 21.919205 0.410763
[Bip01_Neck]
36 165.484543 71.581718 0.000119 175.896118 1.177290 24.871183 180.302734
37 165.484543 71.581718 0.000119 175.896118 1.177290 24.871183 180.302734
[L_humerus]
36 -13.983130 -135.272980 -120.471481 -17.548679 68.975060 72.034050 181.680161
37 -13.983130 -135.272980 -120.471481 -7.900795 68.804916 81.472969 181.680161
[R_humerus]
36 -13.983309 -135.273102 125.287651 47.859367 -74.728416 50.254295 184.909012
37 -13.983309 -135.273102 125.287651 29.621298 -72.082420 66.595139 184.909012
[weapon_bone]
36 235.964890 -300.705902 0.000000 0.000000 -89.951546 -128.212341 382.234833
37 235.964890 -300.705902 0.000000 0.000000 -89.951546 -128.212341 382.234833
[Bip01_Head]
36 218.394974 141.043533 7.889669 5.416736 3.248217 -65.348091 260.099762
37 213.202026 143.916916 8.223933 3.537373 2.287488 -64.243156 257.361267
[eye_left_bone]
36 27.373966 155.945801 -74.730034 -104.627426 -85.626015 5.135154 175.080002
37 26.802217 155.722000 -74.652290 -104.308311 -85.606079 4.812171 174.758881
[eye_right_bone]
36 36.714211 156.861679 54.011478 75.374420 -85.625114 5.133935 169.913971
37 36.411896 156.587402 54.077950 75.698746 -85.602699 4.807979 169.616821
[L_forearm]
36 322.776093 0.000000 -0.000119 0.000302 -0.002328 -104.796227 322.776093
37 322.776093 0.000000 -0.000119 0.000372 -0.002318 -108.221863 322.776093
[L_front_hand]
36 241.149185 -0.042021 -3.300071 39.578915 3.347552 -5.332743 241.171753
37 241.149185 -0.042021 -3.300071 39.578915 3.347552 -5.332743 241.171753
[L_weapon_bone]
36 156.183838 0.000000 0.000000 0.001621 0.001698 -2.639580 156.183838
37 156.183838 0.000000 0.000000 0.001650 0.001670 -0.685804 156.183838
[L_front_hand01_01]
36 86.095154 20.947098 -0.655860 -0.288967 -0.524182 66.581490 88.609184
37 86.095154 20.947098 -0.655860 -0.288967 -0.524182 66.581490 88.609184
[L_front_hand02_01]
36 86.935165 -11.437475 24.513514 142.546371 -55.255390 -47.355206 91.046425
37 86.935165 -11.437475 24.513514 142.546371 -55.255405 -47.355213 91.046425
[L_front_hand03_01]
36 86.637497 -14.123976 -20.424902 -142.852753 53.473362 -49.356201 90.126129
37 86.637497 -14.123976 -20.424902 -142.852753 53.473362 -49.356201 90.126129
[L_front_hand01_02]
36 71.020905 -0.000179 0.000030 0.000334 -0.002323 -106.379669 71.020905
37 71.020905 -0.000179 0.000030 0.000334 -0.002323 -106.379684 71.020905
[L_front_hand02_02]
36 71.020927 -0.000119 0.000060 0.000334 -0.002323 -106.379669 71.020927
37 71.020927 -0.000119 0.000060 0.000334 -0.002323 -106.379684 71.020927
[L_front_hand03_02]
36 71.020905 -0.000060 0.000060 0.000334 -0.002323 -106.379669 71.020905
37 71.020905 -0.000060 0.000060 0.000334 -0.002323 -106.379684 71.020905
[R_forearm]
36 322.776428 -0.000060 0.000030 0.208526 0.026095 -97.915993 322.776428
37 322.776428 -0.000060 0.000030 0.204600 0.053125 -105.182503 322.776428
[R_front_hand]
36 238.847015 -0.006795 2.210259 -2.635298 -10.645461 -26.312506 238.857239
37 238.847015 -0.006795 2.210259 -2.635298 -10.645461 -26.312506 238.857239
[R_weapon_bone]
36 155.664093 0.002503 -0.000030 0.003487 0.001180 -90.988930 155.664078
37 155.664093 0.002503 -0.000030 0.003487 0.001180 -90.988930 155.664078
[R_front_hand01_01]
36 87.624611 14.231146 22.918642 -154.633499 -59.950619 61.746044 91.683487
37 87.624611 14.231146 22.918642 -154.633499 -59.950634 61.746063 91.683487
[R_front_hand02_01]
36 89.356956 14.367283 -19.491137 154.602661 58.302849 63.744389 92.579636
37 89.356956 14.367283 -19.491137 154.602661 58.302849 63.744389 92.579636
[R_front_hand03_01]
36 87.286232 -22.307278 -0.143439 0.162155 -0.423168 -75.767921 90.091743
37 87.286232 -22.307278 -0.143439 0.162155 -0.423168 -75.767921 90.091743
[R_front_hand01_02]
36 71.020905 0.000060 0.000119 0.002323 -0.000334 106.381714 71.020905
37 71.020905 0.000060 0.000119 0.002323 -0.000334 106.381714 71.020905
[R_front_hand02_02]
36 71.020844 -0.000030 -0.000119 0.002323 -0.000334 106.381714 71.020836
37 71.020844 -0.000030 -0.000119 0.002323 -0.000334 106.381714 71.020836
[R_front_hand03_02]
36 71.020905 0.000000 0.000030 0.002323 -0.000334 106.381714 71.020905
37 71.020905 0.000000 0.000030 0.002323 -0.000334 106.381714 71.020905
[null_rope01_connect]
36 328.732483 0.000000 -0.000238 -99.912994 -65.380753 176.931931 328.732483
37 328.732483 0.000000 -0.000238 -129.819092 -69.658829 -147.435791 328.732483
[Rope1_Seg01]
36 -0.000038 -0.000114 0.000113 76.547501 12.463369 -127.186295 0.000166
37 -0.000038 -0.000114 0.000114 68.018204 6.450118 -127.100189 0.000166
[Rope1_Seg02]
36 139.999863 -0.000179 0.000000 -15.782417 2.146479 4.404683 139.999863
37 139.999863 -0.000179 0.000000 -9.592749 2.765571 1.879607 139.999863
[Rope1_Seg03]
36 139.999924 0.000060 -0.000060 -16.444065 -0.243363 11.890979 139.999924
37 139.999924 0.000060 -0.000060 -12.693454 2.904865 3.850821 139.999924
[Rope1_Seg04]
36 139.999924 -0.000060 -0.000119 -6.777044 6.499896 -3.753561 139.999924
37 139.999924 -0.000060 -0.000119 -14.681702 3.162863 6.042522 139.999924
[Rope1_Seg05]
36 139.999832 0.000119 -0.000060 -3.252902 6.125507 -6.036452 139.999832
37 139.999832 0.000119 -0.000060 -3.965521 5.030835 -3.809042 139.999832
[Rope1_Seg06]
36 139.999954 0.000119 -0.000060 -4.027435 2.211907 -1.610559 139.999954
37 139.999954 0.000119 -0.000060 -1.920788 2.063571 -1.536923 139.999954
[Rope1_Seg07]
36 139.999985 0.000060 0.000000 -3.976753 1.406346 -0.878606 139.999985
37 139.999985 0.000060 0.000000 -1.891991 1.047653 -0.460831 139.999985
[Rope1_Seg09]
36 121.602913 0.000119 -0.000089 57.568462 -1.360173 0.846031 121.602913
37 121.602913 0.000119 -0.000089 57.568462 -1.360173 0.846031 121.602913
[L_mid_hand01]
36 103.859421 1.038730 8.195221 105.751511 -24.022362 -7.082344 104.187431
37 103.859421 1.038730 8.195221 105.590393 -22.696539 -6.676129 104.187431
[L_mid_hand02]
36 105.572853 -4.139662 -10.864139 -139.796509 21.023338 -22.406729 106.211075
37 105.572853 -4.139662 -10.864139 -139.408173 20.133652 -21.287260 106.211075
[L_mid_hand03]
36 104.641464 17.579376 -3.913581 -17.221218 7.574754 26.939249 106.179977
37 104.641464 17.579376 -3.913581 -17.392614 7.164811 25.618189 106.179977
[null_rope02_connect]
36 328.732849 0.000179 -0.000119 -173.926193 62.918179 -72.903343 328.732849
37 328.732849 0.000179 -0.000119 -158.167007 66.792007 -55.523705 328.732849
[Rope2_Seg01]
36 0.000104 0.000114 0.000000 -49.188366 16.619213 -34.081062 0.000154
37 0.000109 0.000114 0.000000 2.363319 13.161066 -40.161678 0.000158
[Rope2_Seg02]
36 139.999741 -0.000060 -0.000119 86.362381 3.635007 -11.174820 139.999756
37 139.999741 -0.000060 -0.000119 71.317581 -4.918583 -13.778457 139.999756
[Rope2_Seg03]
36 140.000107 0.000030 0.000000 17.000948 -14.221149 -0.814427 140.000107
37 140.000107 0.000030 0.000000 4.476021 -10.727154 2.420058 140.000107
[Rope2_Seg04]
36 139.999802 0.000000 -0.000060 20.338690 -19.450045 -6.888555 139.999802
37 139.999802 0.000000 -0.000060 10.267531 -15.921737 -1.498128 139.999802
[Rope2_Seg05]
36 139.999985 -0.000060 0.000119 20.371674 -24.441477 -14.759698 139.999985
37 139.999985 -0.000060 0.000119 6.921307 -14.944886 -2.101569 139.999985
[Rope2_Seg06]
36 139.999893 -0.000030 -0.000119 2.657755 -10.941633 -1.376090 139.999893
37 139.999893 -0.000030 -0.000119 1.458991 -6.494240 0.245845 139.999893
[Rope2_Seg07]
36 139.999893 0.000060 -0.000060 0.807564 -5.730346 -0.370542 139.999893
37 139.999893 0.000060 -0.000060 0.615636 -3.789050 0.288101 139.999893
[Rope2_Seg09]
36 121.338966 0.000089 -0.000060 33.793236 -1.359788 -0.847141 121.338966
37 121.338966 0.000089 -0.000060 33.793236 -1.359788 -0.847141 121.338966
[R_mid_hand01]
36 104.680779 11.144459 -10.335981 -44.145947 19.560663 21.759447 105.778534
37 104.680779 11.144459 -10.335981 -44.145947 19.560663 21.759447 105.778534
[R_mid_hand02]
36 104.070427 2.443552 8.231699 74.186180 -24.483591 7.232481 104.424065
37 104.070427 2.443552 8.231699 74.186195 -24.483597 7.232481 104.424065
[R_mid_hand03]
36 106.028137 -11.221827 -5.996406 -166.520828 8.347037 -28.494413 106.788818
37 106.028137 -11.221827 -5.996406 -166.520828 8.347037 -28.494413 106.788818
[spine02]
36 129.756927 0.001550 0.000119 0.324867 -4.048296 -12.475654 129.756927
37 129.756927 0.001550 0.000119 0.341585 -4.046648 -12.670403 129.756927
[spine03]
36 78.614098 0.081383 -4.899010 1.945056 3.805040 17.239641 78.766640
37 78.614075 0.081432 -4.899008 1.920820 3.818246 16.856350 78.766609
[pelvis]
36 169.435242 0.051022 0.000000 -0.060510 -0.180210 14.116168 169.435257
37 169.435242 0.051022 0.000000 -0.060473 -0.180223 14.092912 169.435257
[null_rope03_connect]
36 -1.257226 -2.466202 137.391083 -18.990343 -85.005661 80.062515 137.418976
37 -1.257226 -2.466202 137.391083 0.335048 -87.903801 61.078354 137.418976
[null_rope04_connect]
36 -1.259640 -2.480268 -137.844437 -18.990343 -85.005661 80.062515 137.872513
37 -1.259640 -2.480268 -137.844437 0.335048 -87.903801 61.078354 137.872513
[Rope3_Seg01]
36 0.000000 0.000000 0.000000 -137.465042 20.255989 -97.540550 0.000000
37 0.000000 0.000000 0.000000 -139.407410 25.321671 -96.747932 0.000000
[Rope3_Seg02]
36 139.999924 -0.000119 0.000060 -0.151021 -1.915046 -1.816153 139.999924
37 139.999924 -0.000119 0.000060 0.265702 -1.752059 -3.351500 139.999924
[Rope3_Seg03]
36 139.999924 -0.000119 0.000119 -0.130657 -2.509524 -2.543315 139.999924
37 139.999924 -0.000119 0.000119 0.290889 -2.204929 -4.224351 139.999924
[Rope3_Seg04]
36 139.999924 0.000119 0.000000 0.191526 -5.404592 -7.166495 139.999924
37 139.999924 0.000119 0.000000 0.561011 -4.474705 -9.087324 139.999924
[Rope3_Seg05]
36 139.999924 -0.000238 0.000060 -0.178638 1.386888 5.556109 139.999924
37 139.999924 -0.000238 0.000060 0.072981 0.420890 1.911081 139.999924
[Rope3_Seg06]
36 139.999893 -0.000119 -0.000060 0.190120 3.782036 8.398000 139.999893
37 139.999893 -0.000119 -0.000060 0.337702 3.498451 8.227770 139.999893
[Rope3_Seg07]
36 139.999771 0.000060 -0.000119 0.169361 1.214045 3.218757 139.999771
37 139.999771 0.000060 -0.000119 0.325682 1.215095 3.027459 139.999771
[Rope3_Seg08]
36 139.999985 -0.000060 0.000000 0.291069 0.733759 1.937424 139.999985
37 139.999985 -0.000060 0.000000 0.394242 0.737357 1.819390 139.999985
[Rope3_Seg09]
36 90.185997 -0.000179 -0.000060 11.327192 -1.360469 -0.848983 90.185997
37 90.185997 -0.000179 -0.000060 8.883676 -1.359012 -0.848220 90.185997
[R_rear_hand01]
36 103.366196 -6.073594 -10.757982 -160.019470 14.769054 -24.439312 104.101845
37 103.366196 -6.073594 -10.757982 -160.019470 14.769054 -24.439312 104.101845
[R_rear_hand02]
36 100.509819 12.039542 -7.992327 -35.779446 15.980558 23.927948 101.543350
37 100.509819 12.039542 -7.992327 -35.779446 15.980558 23.927948 101.543350
[R_rear_hand03]
36 101.539970 5.215704 5.435467 83.711815 -25.208061 6.550417 101.819031
37 101.539970 5.215704 5.435467 83.711815 -25.208061 6.550417 101.819031
[Rope4_Seg01]
36 0.000000 0.000000 0.000000 41.961948 24.117104 -116.974487 0.000000
37 0.000000 0.000000 0.000000 40.944256 22.082554 -119.890800 0.000000
[Rope4_Seg02]
36 139.999985 0.000060 0.000119 -0.091305 1.183038 -0.859897 139.999985
37 139.999985 0.000060 0.000119 -0.006685 3.182299 0.946472 139.999985
[Rope4_Seg03]
36 139.999924 0.000000 -0.000238 -0.078253 1.301794 -0.938995 139.999924
37 139.999924 0.000000 -0.000238 0.044832 3.572756 1.066907 139.999924
[Rope4_Seg04]
36 139.999985 0.000000 0.000119 0.185802 2.456272 2.588095 139.999985
37 139.999985 0.000000 0.000119 0.329716 6.812940 5.091346 139.999985
[Rope4_Seg05]
36 139.999802 -0.000060 -0.000119 -0.040088 1.207780 -3.021105 139.999802
37 139.999802 -0.000060 -0.000119 0.326086 3.593936 -0.383968 139.999802
[Rope4_Seg06]
36 139.999924 0.000000 0.000060 -0.640211 -1.937782 -12.303193 139.999924
37 139.999924 0.000000 0.000060 1.092145 -5.219368 -10.479519 139.999924
[Rope4_Seg07]
36 139.999802 0.000000 0.000000 -1.090363 -1.134251 -7.868044 139.999802
37 139.999802 0.000000 0.000000 0.078789 -3.119540 -5.920356 139.999802
[Rope4_Seg08]
36 139.999924 0.000000 0.000119 -2.317204 -0.350668 -3.959319 139.999924
37 139.999924 0.000000 0.000119 -1.650661 -1.094566 -2.599464 139.999924
[Rope4_Seg09]
36 90.185791 0.000060 0.000060 161.978806 2.226509 0.850609 90.185791
37 90.185791 0.000060 0.000060 161.417603 2.227357 0.850255 90.185791
[L_rear_hand01]
36 101.696655 -8.392275 -7.654577 -36.144974 -15.023620 157.444031 102.329041
37 101.696655 -8.392275 -7.654577 -36.144974 -15.023620 157.444031 102.329041
[L_rear_hand02]
36 102.726799 -1.568258 5.773216 83.794235 23.585917 173.644012 102.900848
37 102.726799 -1.568258 5.773216 83.794235 23.585917 173.644012 102.900848
[L_rear_hand03]
36 104.552910 9.721220 -10.420293 -159.624359 -14.202497 -157.147644 105.519653
37 104.552910 9.721220 -10.420293 -159.624359 -14.202497 -157.147644 105.519653
